<?xml version="1.0" encoding="utf-8"?>
<!-- Generator: Adobe Illustrator 23.1.0, SVG Export Plug-In . SVG Version: 6.00 Build 0)  -->
<svg version="1.1" id="图层_1" xmlns="http://www.w3.org/2000/svg" xmlns:xlink="http://www.w3.org/1999/xlink" x="0px" y="0px"
	 viewBox="0 0 800 800" style="enable-background:new 0 0 800 800;" xml:space="preserve">
<style type="text/css">
	.temp0{display:none;}
	.temp1{fill:#5222D0;}
	.temp2{fill:#EC615B;}
	.temp3{fill:#000000;}
</style>
<rect x="7" y="6" class="temp0" width="790" height="746"/>
<g>
	<path class="temp1" d="M478,319.58v106h-0.14h-0.28l-69.58,0.5V325h-35h-0.71L358,341.95L228.6,495.43l24.67,24.67l34.01-41.1H373v33
		h35v-57.98l69.58,0.56h0.28H478v53h35v-188H478z M304.65,458L358,393.52l14.84-17.94l0.16-0.19V458H304.65z"/>
	<path class="temp2" d="M475,314.58v106h-0.14h-0.28l-69.58,0.5V320h-35h-0.71L355,336.95L225.6,490.43l24.67,24.67l34.01-41.1H370v33
		h35v-57.98l69.58,0.56h0.28H475v53h35v-188H475z M301.65,453L355,388.52l14.84-17.94l0.16-0.19V453H301.65z"/>
	<path class="temp3" d="M472,308.58v106h-0.14h-0.28l-69.58,0.5V314h-35h-0.71L352,330.95L222.6,484.43l24.67,24.67l34.01-41.1H367v33
		h35v-57.98l69.58,0.56h0.28H472v53h35v-188H472z M298.65,447L352,382.52l14.84-17.94l0.16-0.19V447H298.65z"/>
</g>
</svg>
