<?xml version="1.0" encoding="utf-8"?>
<!-- Generator: Adobe Illustrator 24.3.0, SVG Export Plug-In . SVG Version: 6.00 Build 0)  -->
<svg version="1.1" id="Layer_1" xmlns="http://www.w3.org/2000/svg" xmlns:xlink="http://www.w3.org/1999/xlink" x="0px" y="0px"
	 viewBox="0 0 1979.5 1309.8" style="enable-background:new 0 0 1979.5 1309.8;" xml:space="preserve">
<style type="text/css">
	.st0{fill:#EC615B;}
	.st1{fill:#5222D0;}
	.st2{fill:#878787;}
	.st3{fill:#E8E8E8;}
	.st4{fill:#161616;}
</style>
<g id="details">
	<circle class="st0" cx="1799.8" cy="137.4" r="5.8"/>
	<circle class="st0" cx="1934.5" cy="921.7" r="6.9"/>
	<circle class="st0" cx="323.4" cy="839.9" r="15.8"/>
	<circle class="st0" cx="355.1" cy="865.7" r="5.3"/>
	<circle class="st0" cx="1467.9" cy="933" r="11.8"/>
	<circle class="st0" cx="1859.3" cy="73.4" r="10.4"/>
	<circle class="st0" cx="1872.6" cy="54.5" r="6.4"/>
	<circle class="st1" cx="339.3" cy="823.3" r="15.8"/>
	<circle class="st1" cx="1909.1" cy="930" r="7.9"/>
	<circle class="st1" cx="1419.1" cy="914.9" r="7"/>
	<circle class="st1" cx="1847.4" cy="37.9" r="16.6"/>
	<circle class="st1" cx="1580.8" cy="166.9" r="3.6"/>
	<g>
		<g>
			<path class="st1" d="M1542.9,19.1c-2.1,4.9-4.1,9.9-6.2,14.8c-0.7,1.8,2.2,2.6,2.9,0.8c2.1-4.9,4.1-9.9,6.2-14.8
				C1546.5,18.1,1543.6,17.3,1542.9,19.1L1542.9,19.1z"/>
		</g>
	</g>
	<g>
		<g>
			<path class="st1" d="M1542.4,21.5c3.7,3.9,6.6,8.3,8.5,13.3c0.7,1.8,3.6,1,2.9-0.8c-2.2-5.5-5.3-10.3-9.3-14.6
				C1543.2,18,1541,20.1,1542.4,21.5L1542.4,21.5z"/>
		</g>
	</g>
	<g>
		<g>
			<path class="st1" d="M1537.5,36.5c2.9,5.4,6.2,10.5,9.9,15.3c1.2,1.5,3.8,0,2.6-1.5c-3.7-4.9-7-10-9.9-15.3
				C1539.1,33.3,1536.6,34.8,1537.5,36.5L1537.5,36.5z"/>
		</g>
	</g>
	<g>
		<g>
			<path class="st1" d="M1551.1,35c-1.2,5.6-2.3,11.2-3.5,16.8c-0.4,1.9,2.5,2.7,2.9,0.8c1.2-5.6,2.3-11.2,3.5-16.8
				C1554.4,34,1551.5,33.2,1551.1,35L1551.1,35z"/>
		</g>
	</g>
	<g>
		<g>
			<path class="st1" d="M1911.1,863.6c-2.4,4.4-4,9.1-4.7,14.1c-0.3,1.9,2.6,2.7,2.9,0.8c0.7-4.7,2.1-9.1,4.4-13.3
				C1914.6,863.4,1912,861.9,1911.1,863.6L1911.1,863.6z"/>
		</g>
	</g>
	<g>
		<g>
			<path class="st1" d="M1910.9,864.5c2,5.3,4.3,10.4,6.9,15.3c0.9,1.7,3.5,0.2,2.6-1.5c-2.5-4.7-4.7-9.6-6.6-14.6
				C1913.1,861.9,1910.2,862.7,1910.9,864.5L1910.9,864.5z"/>
		</g>
	</g>
	<g>
		<g>
			<path class="st1" d="M1905.8,879.8c2.6,3.7,5.1,7.4,7.7,11.1c1.1,1.6,3.7,0.1,2.6-1.5c-2.6-3.7-5.1-7.4-7.7-11.1
				C1907.3,876.7,1904.7,878.2,1905.8,879.8L1905.8,879.8z"/>
		</g>
	</g>
	<g>
		<g>
			<path class="st1" d="M1916.7,879.3c-2.1,2.9-3.1,6.2-3.1,9.7c0,1.9,3,1.9,3,0c0-3,0.9-5.8,2.7-8.2
				C1920.4,879.2,1917.8,877.7,1916.7,879.3L1916.7,879.3z"/>
		</g>
	</g>
	<g>
		<g>
			<path class="st1" d="M1463.5,864c-2.2,5.9-4.4,11.7-6.6,17.6c-0.7,1.7,1.5,3.3,2.1,1.5c2.2-5.9,4.4-11.7,6.6-17.6
				C1466.2,863.8,1464.2,862.3,1463.5,864L1463.5,864z"/>
		</g>
	</g>
	<g>
		<g>
			<path class="st1" d="M1463.9,864.8c2.1,6.2,4.2,12.4,6.4,18.6c0.6,1.8,2.9,1,2.4-0.8c-2.1-6.2-4.2-12.4-6.4-18.6
				C1465.7,862.2,1463.3,863,1463.9,864.8L1463.9,864.8z"/>
		</g>
	</g>
	<g>
		<g>
			<path class="st1" d="M1456.3,884.3c2.2,5.3,4.3,10.7,6.5,16c0.4,0.9,1.4,0.9,2,0.3c1.7-1.7,2.5-4.6,3.4-6.9
				c1.3-3.2,2.6-6.4,3.9-9.6c0.7-1.7-1.4-3.2-2.1-1.5c-1.1,2.8-2.4,5.6-3.5,8.4c-1,2.4-1.9,5.7-3.6,7.4c0.7,0.1,1.3,0.2,2,0.3
				c-2.2-5.3-4.3-10.7-6.5-16C1457.7,881.1,1455.6,882.6,1456.3,884.3L1456.3,884.3z"/>
		</g>
	</g>
	<g>
		<g>
			<path class="st1" d="M1884.9,189.1c-3.1,5.9-5,12.1-5.9,18.7c-0.3,1.9,2.7,1.9,3,0c0.8-6.1,2.6-11.8,5.4-17.2
				C1888.4,188.9,1885.8,187.4,1884.9,189.1L1884.9,189.1z"/>
		</g>
	</g>
	<g>
		<g>
			<path class="st1" d="M1884.5,192.6c3.1,6,6.1,12,9.2,18c0.9,1.7,3.5,0.2,2.6-1.5c-3.1-6-6.1-12-9.2-18
				C1886.2,189.4,1883.6,190.9,1884.5,192.6L1884.5,192.6z"/>
		</g>
	</g>
	<g>
		<g>
			<path class="st1" d="M1879.2,208.2c2.5,6,5.5,11.6,9.1,16.9c1.1,1.6,3.7,0.1,2.6-1.5c-3.5-5.1-6.5-10.5-8.8-16.2
				C1881.4,205.7,1878.5,206.5,1879.2,208.2L1879.2,208.2z"/>
		</g>
	</g>
	<g>
		<g>
			<path class="st1" d="M1892.8,209.5c-1.8,5.6-3.3,11.3-4.3,17.2c-0.3,1.9,2.6,2.7,2.9,0.8c1-5.8,2.4-11.5,4.3-17.2
				C1896.3,208.5,1893.4,207.7,1892.8,209.5L1892.8,209.5z"/>
		</g>
	</g>
	<g>
		<g>
			<path class="st1" d="M1100.1,102.1c-1.2,4-2.3,7.9-3.5,11.9c-0.5,1.9,2.3,2.6,2.9,0.8c1.2-4,2.3-7.9,3.5-11.9
				C1103.6,101,1100.7,100.2,1100.1,102.1L1100.1,102.1z"/>
		</g>
	</g>
	<g>
		<g>
			<path class="st1" d="M1099.9,104.3c1.8,4,3.7,8,5.5,11.9c0.8,1.8,3.4,0.2,2.6-1.5c-1.8-4-3.7-8-5.5-11.9
				C1101.7,101,1099.1,102.5,1099.9,104.3L1099.9,104.3z"/>
		</g>
	</g>
	<g>
		<g>
			<path class="st1" d="M1097.4,115.9c0.9,4.7,3.1,8.9,6.2,12.5c1.3,1.5,3.4-0.7,2.1-2.1c-2.8-3.2-4.6-7-5.4-11.1
				C1099.9,113.2,1097,114,1097.4,115.9L1097.4,115.9z"/>
		</g>
	</g>
	<g>
		<g>
			<path class="st1" d="M1105.3,115.5c-1.3,4.2-1.9,8.5-1.8,12.8c0.1,1.9,3.1,1.9,3,0c-0.1-4.1,0.4-8.1,1.7-12
				C1108.8,114.5,1105.9,113.7,1105.3,115.5L1105.3,115.5z"/>
		</g>
	</g>
	<g>
		<g>
			<path class="st1" d="M1320.5,26.1c-2.2,4.8-4.3,9.6-6.5,14.4c-0.8,1.7,1.8,3.3,2.6,1.5c2.2-4.8,4.3-9.6,6.5-14.4
				C1323.9,25.9,1321.3,24.3,1320.5,26.1L1320.5,26.1z"/>
		</g>
	</g>
	<g>
		<g>
			<path class="st1" d="M1314.4,43c2.3,5.9,4.5,11.7,6.8,17.6c0.7,1.8,3.6,1,2.9-0.8c-2.3-5.9-4.5-11.7-6.8-17.6
				C1316.6,40.4,1313.7,41.2,1314.4,43L1314.4,43z"/>
		</g>
	</g>
	<g>
		<g>
			<path class="st1" d="M1320.5,26.3c3.1,5.4,6.2,10.9,9.3,16.3c1,1.7,3.5,0.2,2.6-1.5c-3.1-5.4-6.2-10.9-9.3-16.3
				C1322.1,23.1,1319.5,24.6,1320.5,26.3L1320.5,26.3z"/>
		</g>
	</g>
	<g>
		<g>
			<path class="st1" d="M1330.5,41.3c-3.2,6-6,12.2-8.4,18.5c-0.7,1.8,2.2,2.6,2.9,0.8c2.3-6.1,5-12.1,8.1-17.8
				C1334,41.1,1331.4,39.6,1330.5,41.3L1330.5,41.3z"/>
		</g>
	</g>
	<g>
		<g>
			<path class="st1" d="M1227.9,931.1c2-3.8,5.8-6.4,10.2-6.2c3.6,0.1,6.3,2.6,9.5,3.8c5.6,2,7.3-1.6,11.5-4.3
				c5.7-3.8,11.2,4.7,17.3,4.6c3.5-0.1,6.4-1.8,6.5-5.5c-0.8,0.4-1.5,0.9-2.3,1.3c3.1,1.6,6.2,3.2,9.2,4.9c1.7,0.9,3.2-1.7,1.5-2.6
				c-3.1-1.6-6.2-3.2-9.2-4.9c-1-0.5-2.2,0.1-2.3,1.3c-0.3,7.1-14.1-3-16.7-3.3c-5.9-0.8-8.2,6.5-13.3,5.7
				c-5.4-0.9-8.8-4.8-14.6-3.8c-4.4,0.8-8,3.5-10,7.5C1224.5,931.3,1227,932.8,1227.9,931.1L1227.9,931.1z"/>
		</g>
	</g>
	<g>
		<g>
			<path class="st1" d="M1266.2,910.8c4.5-5,11.6,1.3,16.7,1.9c5.9,0.7,10.5-5.6,16.2-2.4c4.7,2.7,13.3,9.1,16.7,0.9
				c0.7-1.8-2.2-2.6-2.9-0.8c-2.4,5.8-11-2.3-13.9-3.5c-3.9-1.7-6.5-0.3-10,1.4c-4.2,2-7.2,1.3-11.2-0.5c-1.8-0.8-3.6-1.5-5.6-1.8
				c-3.1-0.4-5.9,0.2-8.1,2.6C1262.8,910.1,1264.9,912.2,1266.2,910.8L1266.2,910.8z"/>
		</g>
	</g>
	<g>
		<g>
			<path class="st0" d="M1661.3,59.4c1.4-2.6,3-3.3,4.8-2.1c0.8,0.3,1.6,0.7,2.4,1.2c0.9,0.4,1.8,1,2.7,1.3c1.6,0.5,3.2,0.7,4.8,0.3
				c4.3-1.2,6.5-6.6,11.1-6.5c4.3,0.1,7.4,4.2,11.9,2.1c1.9-0.9,3.2-2.5,5-3.5c4-2.2,8.9-1.4,12.3,1.4c1.5,1.2,3.6-0.9,2.1-2.1
				c-4.5-3.7-10.7-4.8-15.9-1.9c-2.3,1.3-4.2,4.1-7.2,3.7c-1.7-0.2-3.2-1.4-4.8-2c-2.4-0.9-4.6-1.2-7-0.1c-3,1.4-5,5.3-8.3,6
				c-4.2,0.9-7-3.4-10.9-3.5c-3.7-0.1-8,3.5-5.5,7.2C1659.8,62.5,1662.4,61,1661.3,59.4L1661.3,59.4z"/>
		</g>
	</g>
	<g>
		<g>
			<path class="st0" d="M1694.5,41.7c1.2-6.5,12.5-0.2,16.5-0.9c2.6-0.4,4.5-2.2,6.9-3.1c3.8-1.5,7.5-0.9,11,1.2
				c1.7,1,3.2-1.6,1.5-2.6c-3-1.8-6.2-2.7-9.6-2.4c-1.5,0.1-2.9,0.5-4.2,1c-4,1.7-5.6,3.6-10.6,2.4c-4.8-1.2-13-3.6-14.3,3.6
				C1691.2,42.8,1694.1,43.6,1694.5,41.7L1694.5,41.7z"/>
		</g>
	</g>
	<g>
		<g>
			<path class="st2" d="M586.4,833.8c-2.1,3.3-4.2,6.6-6.4,9.9c-0.7,1,1.4,1.8,2,0.8c2.1-3.3,4.2-6.6,6.4-9.9
				C589,833.7,587.1,832.8,586.4,833.8L586.4,833.8z"/>
		</g>
	</g>
	<g>
		<g>
			<path class="st2" d="M586.8,834.2c2,3.5,4,6.9,6.2,10.4c0.6,1,2.8,0.6,2.3-0.4c-2-3.5-4-6.9-6.2-10.4
				C588.5,832.8,586.2,833.2,586.8,834.2L586.8,834.2z"/>
		</g>
	</g>
	<g>
		<g>
			<path class="st2" d="M579.5,845.2c2.1,3,4.1,6,6.3,9c0.4,0.5,1.3,0.5,1.9,0.2c1.6-1,2.4-2.6,3.3-3.9c1.3-1.8,2.5-3.6,3.8-5.4
				c0.7-1-1.3-1.8-2-0.8c-1.1,1.6-2.3,3.1-3.4,4.7c-1,1.3-1.8,3.2-3.5,4.1c0.7,0.1,1.3,0.1,1.9,0.2c-2.1-3-4.1-6-6.3-9
				C580.8,843.4,578.8,844.2,579.5,845.2L579.5,845.2z"/>
		</g>
	</g>
	<g>
		<g>
			<path class="st2" d="M481.4,868.2c-4.1,3.7-8.1,7.3-12.2,11c-1.2,1-1.1,2.9,0.1,1.8c4.1-3.7,8.1-7.3,12.2-11
				C482.7,868.9,482.6,867.2,481.4,868.2L481.4,868.2z"/>
		</g>
	</g>
	<g>
		<g>
			<path class="st2" d="M481.2,868.9c-2.4,5.3-4.8,10.5-7.1,15.8c-0.7,1.5,0.7,1.7,1.5,0.2c2.4-5.3,4.8-10.5,7.1-15.8
				C483.3,867.6,481.9,867.4,481.2,868.9L481.2,868.9z"/>
		</g>
	</g>
	<g>
		<g>
			<path class="st2" d="M467.5,881c-1.9,4.6-3.8,9.3-5.7,13.9c-0.3,0.8,0.1,1.1,0.7,0.9c1.6-0.7,3.5-2.6,5.2-4.1
				c2.3-2,4.5-3.9,6.8-5.9c1.2-1,1.1-2.8-0.1-1.8c-2,1.7-4,3.4-6,5.1c-1.7,1.5-3.9,3.6-5.5,4.4c0.3,0.3,0.5,0.6,0.7,0.9
				c1.9-4.6,3.8-9.3,5.7-13.9C469.8,879.1,468.1,879.5,467.5,881L467.5,881z"/>
		</g>
	</g>
</g>
<g>
	<g>
		<path class="st3" d="M152.7,180.2c17.8-14.5,41.9-16.6,63.9-12.6c23.5,4.2,44.9,15.5,66.6,25c22.4,9.9,45.2,17,69.8,18.2
			c24.5,1.3,49-2.2,72.8-8.2c49.7-12.5,95.3-36.5,143-54.6c23.9-9.1,48.6-17,74-20.6c13.8-2,27.7-2.5,41.6-1
			c13.2,1.4,26.1,4.5,39,7.7c28.5,7.1,56.9,13.3,86.1,16.8c30.1,3.6,60.5,4.8,90.8,3.8c1.9-0.1,1.9-3.1,0-3
			c-55,2-110-3.9-163.4-17.2c-25.5-6.4-50.8-13-77.3-11.7c-25.7,1.3-51.1,8.1-75.3,16.4c-48.5,16.7-94.1,41.2-143.3,56.1
			c-25,7.5-50.9,12.7-77.1,12.8c-26.6,0.1-51.6-6.1-75.9-16.7c-24-10.4-47.5-23.3-73.6-27.3c-22.2-3.4-45.9-0.7-63.8,13.9
			C149.1,179.3,151.2,181.5,152.7,180.2L152.7,180.2z"/>
	</g>
</g>
<g>
	<g>
		<path class="st3" d="M152.3,116.1c21.9-15.6,47.8-25.2,74.6-27.8c13.4-1.3,26.9-0.8,40.1,1.5c13.7,2.4,26.9,7,40,11.6
			c24.3,8.4,48.4,14.8,74,8.9c22.1-5.1,42.1-16.6,61.7-27.5c23.1-12.9,47.1-26.1,73.9-28.5c1.9-0.2,1.9-3.2,0-3
			c-47.8,4.3-83.7,40.2-128.3,53.9c-11.3,3.5-23.1,5.3-34.9,4.6c-14.5-0.9-28.6-5.4-42.2-10.1c-13.7-4.7-27.4-9.8-41.8-12.5
			c-12.4-2.3-25.1-3-37.6-2.2c-29,1.8-57.3,11.7-81,28.6C149.2,114.6,150.7,117.2,152.3,116.1L152.3,116.1z"/>
	</g>
</g>
<g>
	<g>
		<path class="st3" d="M1191.1,311.8c16.3,5.7,33,0.4,47.9-6.7c16.7-8,32.4-17.9,49.5-25s35.5-11.9,54.1-9.6
			c17,2.1,32.7,9.7,47.6,17.8c14.1,7.7,28,16.1,43,22c16.7,6.5,34.7,9.6,52.6,9.2c36.7-0.8,67.9-19.1,101.4-31.5
			c31.3-11.6,73-16.8,98.1,10.4c1.3,1.4,3.4-0.7,2.1-2.1c-19.7-21.3-51.1-23.7-78.1-18c-35.2,7.4-65.6,28.9-101,35.8
			c-18.9,3.7-38.7,3.2-57.4-1.3c-17.4-4.2-33-12.4-48.6-21.1c-14.1-7.9-28.4-16.1-43.9-20.8c-16.1-4.9-32.9-5-49.2-1
			c-19.9,4.9-38.2,14.6-56.1,24.4c-18.5,10-39.9,22.2-61.4,14.7C1190.1,308.3,1189.3,311.2,1191.1,311.8L1191.1,311.8z"/>
	</g>
</g>
<g>
	<g>
		<path class="st3" d="M1166.7,836.8c41.4,2.5,75.5-25.6,114.6-34.1c10.4-2.3,21.4-3.3,32-1.5c9.5,1.6,18.1,5.5,26.3,10.5
			c14.1,8.6,27.8,19.7,45,20.9c20.9,1.4,39.4-11.6,55-23.8c1.5-1.2-0.6-3.3-2.1-2.1c-15.2,11.8-33.4,24.7-53.8,22.8
			c-17.7-1.6-31.7-14.4-46.6-22.7c-34.3-19.2-71-4.1-103.9,10.4c-21.1,9.2-43,18.1-66.4,16.7
			C1164.8,833.7,1164.8,836.7,1166.7,836.8L1166.7,836.8z"/>
	</g>
</g>
<g>
	<g>
		<path class="st3" d="M494.3,892.8c14.5-13.8,36-19.2,55.3-13.9c20.2,5.5,33.2,22.9,49.4,34.9c32.3,23.9,76.3,20.1,111.8,6
			c41.9-16.6,76.8-46.6,118.6-63.5c20.4-8.3,42.5-13.6,64.7-12.1c21.6,1.5,40,10.8,57.1,23.4c17,12.5,33,27.3,52.9,35.2
			c21.3,8.4,45.3,6.6,65.3-4.5c1.7-0.9,0.2-3.5-1.5-2.6c-20.4,11.3-44.8,12.3-66.1,2.9c-17.8-7.9-32.4-21.1-47.9-32.7
			c-15.9-11.9-32.8-21.2-52.8-24c-20.6-2.8-41.6,0.7-61.1,7.2c-42.7,14.3-77.9,43.8-118.4,62.7c-37.4,17.5-85.5,25.7-121-0.6
			c-17.7-13.1-31.6-31.8-54.4-36.2c-19.3-3.7-39.8,2.1-54,15.7C490.8,892,492.9,894.2,494.3,892.8L494.3,892.8z"/>
	</g>
</g>
<g>
	<g>
		<path class="st3" d="M1064,654.8c16.5-10.7,36.1-15.8,55.8-14.2c18,1.5,35,8.2,51.5,14.9c16,6.5,32.2,13.3,49.4,16.1
			c18,2.9,36.2,0.7,53.5-4.6c20.7-6.4,39.9-16.6,58.8-26.9c1.7-0.9,0.2-3.5-1.5-2.6c-34.6,18.7-72.6,38.4-113.2,30.6
			c-33.9-6.5-63.7-27.5-98.6-30.5c-20.2-1.7-40.4,3.6-57.3,14.6C1060.9,653.3,1062.4,655.9,1064,654.8L1064,654.8z"/>
	</g>
</g>
<g>
	<g>
		<path class="st3" d="M1441.5,934.6c21.8-20.4,48.6-35.1,77.5-42.6c14.7-3.8,29.8-5.7,45-5.6c16.9,0.2,33.7,2.9,50.5,4.5
			c32.6,3.1,63.9-2.4,94.4-14.3c29.1-11.3,56.5-30.9,87.8-35.7c36.6-5.6,64.9,18.7,88.2,43.6c1.3,1.4,3.4-0.7,2.1-2.1
			c-19.2-20.5-41.8-41.7-71-45c-32-3.6-61.1,15.2-88.9,28.1c-32,14.9-66.5,25.1-102,23.1c-17.7-1-35.2-4.2-53-5.1
			c-15.1-0.8-30.3,0.3-45.1,3.4c-32.7,6.7-63.2,22.5-87.6,45.4C1438,933.8,1440.1,935.9,1441.5,934.6L1441.5,934.6z"/>
	</g>
</g>
<g>
	<g>
		<path class="st4" d="M619.5,90.8c33.8-2.5,66.4-11.9,99.1-19.8c34-8.3,68.1-13.8,103.2-10c35.4,3.8,69.7,14.5,104.4,22.1
			c33.4,7.4,67.3,10.8,101.5,9.1c38.5-1.9,76.5-10,112.4-23.8c1.8-0.7,1-3.6-0.8-2.9c-65.3,25.1-136.6,30.4-205,16.2
			c-34.1-7.1-67.5-17.5-102-22.5c-33.3-4.8-65.8-2.1-98.6,5.1c-38,8.3-75.3,20.5-114.2,23.4C617.6,88,617.6,91,619.5,90.8
			L619.5,90.8z"/>
	</g>
</g>
<g>
	<g>
		<path class="st4" d="M1276.9,130.7c29.2-10.8,59.5,4.6,88.7,7.4c15.7,1.5,31.3,0,46.6-3.6c15-3.6,29.6-8.9,44.9-11.2
			c16.4-2.5,33.9-1.5,48.1,7.8c1.6,1.1,3.1-1.5,1.5-2.6c-25.2-16.4-56-7.6-82.6-0.2c-16.7,4.7-33.4,8.1-50.8,7.4
			c-16.6-0.6-32.5-5.2-48.7-8.6c-16.1-3.3-32.7-5.1-48.4,0.7C1274.3,128.4,1275.1,131.3,1276.9,130.7L1276.9,130.7z"/>
	</g>
</g>
<g>
	<g>
		<path class="st4" d="M1527.7,711.5c8.1-9.6,20.6-14.8,33.2-13.2c7.2,0.9,13.8,4.2,20.4,7.1c5.5,2.4,11.1,4.4,16.8,6
			c24.5,6.8,50.8,5.8,74.7-2.6c1.8-0.6,1-3.5-0.8-2.9c-26.8,9.3-56.4,9.3-83.1-0.7c-11.6-4.3-22.4-11.2-35.3-10.2
			c-10.9,0.8-21,6-28.1,14.3C1524.3,710.9,1526.5,713,1527.7,711.5L1527.7,711.5z"/>
	</g>
</g>
<g>
	<g>
		<path class="st4" d="M1733,683.6c18.2-5.3,36.9-7.9,55.9-7.8c1.9,0,1.9-3,0-3c-19.2-0.1-38.2,2.6-56.7,7.9
			C1730.4,681.3,1731.1,684.2,1733,683.6L1733,683.6z"/>
	</g>
</g>
</svg>
