<?xml version="1.0" encoding="utf-8"?>
<!-- Generator: Adobe Illustrator 24.3.0, SVG Export Plug-In . SVG Version: 6.00 Build 0)  -->
<svg version="1.1" id="Layer_1" xmlns="http://www.w3.org/2000/svg" xmlns:xlink="http://www.w3.org/1999/xlink" x="0px" y="0px"
	 viewBox="0 0 1979.5 1309.8" style="enable-background:new 0 0 1979.5 1309.8;" xml:space="preserve">
<style type="text/css">
	.st0{fill:#EC615B;}
	.st1{fill:#5222D0;}
	.st2{fill:#878787;}
	.st3{fill:#E8E8E8;}
	.st4{fill:#161616;}
</style>
<g id="details">
	<circle class="st0" cx="425.9" cy="912.9" r="5.8"/>
	<circle class="st0" cx="1914.7" cy="947.2" r="6.9"/>
	<circle class="st0" cx="1804.2" cy="512.9" r="15.8"/>
	<circle class="st0" cx="1835.9" cy="538.7" r="5.3"/>
	<circle class="st0" cx="1448.1" cy="958.6" r="11.8"/>
	<circle class="st0" cx="1414.8" cy="111.6" r="10.4"/>
	<circle class="st0" cx="1428.1" cy="92.7" r="6.4"/>
	<circle class="st1" cx="1820.1" cy="496.3" r="15.8"/>
	<circle class="st1" cx="1889.3" cy="955.5" r="7.9"/>
	<circle class="st1" cx="1399.3" cy="940.5" r="7"/>
	<circle class="st1" cx="1542.1" cy="109" r="16.6"/>
	<circle class="st1" cx="206.9" cy="942.4" r="3.6"/>
	<g>
		<g>
			<path class="st1" d="M1306.4,109.2c-2.1,4.9-4.1,9.9-6.2,14.8c-0.7,1.8,2.2,2.6,2.9,0.8c2.1-4.9,4.1-9.9,6.2-14.8
				C1310,108.2,1307.1,107.4,1306.4,109.2L1306.4,109.2z"/>
		</g>
	</g>
	<g>
		<g>
			<path class="st1" d="M1305.9,111.6c3.7,3.9,6.6,8.3,8.5,13.3c0.7,1.8,3.6,1,2.9-0.8c-2.2-5.5-5.3-10.3-9.3-14.6
				C1306.7,108.1,1304.5,110.2,1305.9,111.6L1305.9,111.6z"/>
		</g>
	</g>
	<g>
		<g>
			<path class="st1" d="M1301,126.6c2.9,5.4,6.2,10.5,9.9,15.3c1.2,1.5,3.8,0,2.6-1.5c-3.7-4.9-7-10-9.9-15.3
				C1302.6,123.4,1300.1,124.9,1301,126.6L1301,126.6z"/>
		</g>
	</g>
	<g>
		<g>
			<path class="st1" d="M1314.6,125.1c-1.2,5.6-2.3,11.2-3.5,16.8c-0.4,1.9,2.5,2.7,2.9,0.8c1.2-5.6,2.3-11.2,3.5-16.8
				C1317.9,124.1,1315,123.3,1314.6,125.1L1314.6,125.1z"/>
		</g>
	</g>
	<g>
		<g>
			<path class="st1" d="M1891.3,889.1c-2.4,4.4-4,9.1-4.7,14.1c-0.3,1.9,2.6,2.7,2.9,0.8c0.7-4.7,2.1-9.1,4.4-13.3
				C1894.8,888.9,1892.2,887.4,1891.3,889.1L1891.3,889.1z"/>
		</g>
	</g>
	<g>
		<g>
			<path class="st1" d="M1891.1,890c2,5.3,4.3,10.4,6.9,15.3c0.9,1.7,3.5,0.2,2.6-1.5c-2.5-4.7-4.7-9.6-6.6-14.6
				C1893.3,887.4,1890.4,888.2,1891.1,890L1891.1,890z"/>
		</g>
	</g>
	<g>
		<g>
			<path class="st1" d="M1886,905.3c2.6,3.7,5.1,7.4,7.7,11.1c1.1,1.6,3.7,0.1,2.6-1.5c-2.6-3.7-5.1-7.4-7.7-11.1
				C1887.5,902.2,1884.9,903.7,1886,905.3L1886,905.3z"/>
		</g>
	</g>
	<g>
		<g>
			<path class="st1" d="M1896.9,904.8c-2.1,2.9-3.1,6.2-3.1,9.7c0,1.9,3,1.9,3,0c0-3,0.9-5.8,2.7-8.2
				C1900.6,904.7,1898,903.2,1896.9,904.8L1896.9,904.8z"/>
		</g>
	</g>
	<g>
		<g>
			<path class="st1" d="M259.9,829.6c-2.2,5.9-4.4,11.7-6.6,17.6c-0.7,1.7,1.5,3.3,2.1,1.5c2.2-5.9,4.4-11.7,6.6-17.6
				C262.7,829.4,260.7,827.9,259.9,829.6L259.9,829.6z"/>
		</g>
	</g>
	<g>
		<g>
			<path class="st1" d="M260.4,830.4c2.1,6.2,4.2,12.4,6.4,18.6c0.6,1.8,2.9,1,2.4-0.8c-2.1-6.2-4.2-12.4-6.4-18.6
				C262.1,827.8,259.8,828.6,260.4,830.4L260.4,830.4z"/>
		</g>
	</g>
	<g>
		<g>
			<path class="st1" d="M252.8,849.9c2.2,5.3,4.3,10.7,6.5,16c0.4,0.9,1.4,0.9,2,0.3c1.7-1.7,2.5-4.6,3.4-6.9
				c1.3-3.2,2.6-6.4,3.9-9.6c0.7-1.7-1.4-3.2-2.1-1.5c-1.1,2.8-2.4,5.6-3.5,8.4c-1,2.4-1.9,5.7-3.6,7.4c0.7,0.1,1.3,0.2,2,0.3
				c-2.2-5.3-4.3-10.7-6.5-16C254.2,846.7,252,848.2,252.8,849.9L252.8,849.9z"/>
		</g>
	</g>
	<g>
		<g>
			<path class="st1" d="M995.7,132.3c-3.1,5.9-5,12.1-5.9,18.7c-0.3,1.9,2.7,1.9,3,0c0.8-6.1,2.6-11.8,5.4-17.2
				C999.2,132.1,996.6,130.6,995.7,132.3L995.7,132.3z"/>
		</g>
	</g>
	<g>
		<g>
			<path class="st1" d="M995.3,135.8c3.1,6,6.1,12,9.2,18c0.9,1.7,3.5,0.2,2.6-1.5c-3.1-6-6.1-12-9.2-18
				C997,132.6,994.4,134.1,995.3,135.8L995.3,135.8z"/>
		</g>
	</g>
	<g>
		<g>
			<path class="st1" d="M990,151.4c2.5,6,5.5,11.6,9.1,16.9c1.1,1.6,3.7,0.1,2.6-1.5c-3.5-5.1-6.5-10.5-8.8-16.2
				C992.2,148.9,989.3,149.7,990,151.4L990,151.4z"/>
		</g>
	</g>
	<g>
		<g>
			<path class="st1" d="M1003.6,152.7c-1.8,5.6-3.3,11.3-4.3,17.2c-0.3,1.9,2.6,2.7,2.9,0.8c1-5.8,2.4-11.5,4.3-17.2
				C1007.1,151.7,1004.2,150.9,1003.6,152.7L1003.6,152.7z"/>
		</g>
	</g>
	<g>
		<g>
			<path class="st2" d="M411.9,764.3c-1.2,4-2.3,7.9-3.5,11.9c-0.5,1.9,2.3,2.6,2.9,0.8c1.2-4,2.3-7.9,3.5-11.9
				C415.4,763.2,412.5,762.4,411.9,764.3L411.9,764.3z"/>
		</g>
	</g>
	<g>
		<g>
			<path class="st2" d="M411.7,766.5c1.8,4,3.7,8,5.5,11.9c0.8,1.8,3.4,0.2,2.6-1.5c-1.8-4-3.7-8-5.5-11.9
				C413.5,763.2,410.9,764.7,411.7,766.5L411.7,766.5z"/>
		</g>
	</g>
	<g>
		<g>
			<path class="st2" d="M409.2,778.1c0.9,4.7,3.1,8.9,6.2,12.5c1.3,1.5,3.4-0.7,2.1-2.1c-2.8-3.2-4.6-7-5.4-11.1
				C411.7,775.4,408.8,776.2,409.2,778.1L409.2,778.1z"/>
		</g>
	</g>
	<g>
		<g>
			<path class="st2" d="M417.1,777.7c-1.3,4.2-1.9,8.5-1.8,12.8c0.1,1.9,3.1,1.9,3,0c-0.1-4.1,0.4-8.1,1.7-12
				C420.6,776.7,417.7,775.9,417.1,777.7L417.1,777.7z"/>
		</g>
	</g>
	<g>
		<g>
			<path class="st2" d="M1084,116.2c-2.2,4.8-4.3,9.6-6.5,14.4c-0.8,1.7,1.8,3.3,2.6,1.5c2.2-4.8,4.3-9.6,6.5-14.4
				C1087.4,116,1084.8,114.4,1084,116.2L1084,116.2z"/>
		</g>
	</g>
	<g>
		<g>
			<path class="st2" d="M1077.9,133.1c2.3,5.9,4.5,11.7,6.8,17.6c0.7,1.8,3.6,1,2.9-0.8c-2.3-5.9-4.5-11.7-6.8-17.6
				C1080.1,130.5,1077.2,131.3,1077.9,133.1L1077.9,133.1z"/>
		</g>
	</g>
	<g>
		<g>
			<path class="st2" d="M1084,116.4c3.1,5.4,6.2,10.9,9.3,16.3c1,1.7,3.5,0.2,2.6-1.5c-3.1-5.4-6.2-10.9-9.3-16.3
				C1085.6,113.2,1083,114.7,1084,116.4L1084,116.4z"/>
		</g>
	</g>
	<g>
		<g>
			<path class="st2" d="M1094,131.4c-3.2,6-6,12.2-8.4,18.5c-0.7,1.8,2.2,2.6,2.9,0.8c2.3-6.1,5-12.1,8.1-17.8
				C1097.5,131.2,1094.9,129.7,1094,131.4L1094,131.4z"/>
		</g>
	</g>
	<g>
		<g>
			<path class="st1" d="M1208.1,956.6c2-3.8,5.8-6.4,10.2-6.2c3.6,0.1,6.3,2.6,9.5,3.8c5.6,2,7.3-1.6,11.5-4.3
				c5.7-3.8,11.2,4.7,17.3,4.6c3.5-0.1,6.4-1.8,6.5-5.5c-0.8,0.4-1.5,0.9-2.3,1.3c3.1,1.6,6.2,3.2,9.2,4.9c1.7,0.9,3.2-1.7,1.5-2.6
				c-3.1-1.6-6.2-3.2-9.2-4.9c-1-0.5-2.2,0.1-2.3,1.3c-0.3,7.1-14.1-3-16.7-3.3c-5.9-0.8-8.2,6.5-13.3,5.7
				c-5.4-0.9-8.8-4.8-14.6-3.8c-4.4,0.8-8,3.5-10,7.5C1204.7,956.8,1207.2,958.3,1208.1,956.6L1208.1,956.6z"/>
		</g>
	</g>
	<g>
		<g>
			<path class="st1" d="M1246.4,936.3c4.5-5,11.6,1.3,16.7,1.9c5.9,0.7,10.5-5.6,16.2-2.4c4.7,2.7,13.3,9.1,16.7,0.9
				c0.7-1.8-2.2-2.6-2.9-0.8c-2.4,5.8-11-2.3-13.9-3.5c-3.9-1.7-6.5-0.3-10,1.4c-4.2,2-7.2,1.3-11.2-0.5c-1.8-0.8-3.6-1.5-5.6-1.8
				c-3.1-0.4-5.9,0.2-8.1,2.6C1243,935.6,1245.1,937.7,1246.4,936.3L1246.4,936.3z"/>
		</g>
	</g>
	<g>
		<g>
			<path class="st0" d="M1761.4,137.6c1.4-2.6,3-3.3,4.8-2.1c0.8,0.3,1.6,0.7,2.4,1.2c0.9,0.4,1.8,1,2.7,1.3
				c1.6,0.5,3.2,0.7,4.8,0.3c4.3-1.2,6.5-6.6,11.1-6.5c4.3,0.1,7.4,4.2,11.9,2.1c1.9-0.9,3.2-2.5,5-3.5c4-2.2,8.9-1.4,12.3,1.4
				c1.5,1.2,3.6-0.9,2.1-2.1c-4.5-3.7-10.7-4.8-15.9-1.9c-2.3,1.3-4.2,4.1-7.2,3.7c-1.7-0.2-3.2-1.4-4.8-2c-2.4-0.9-4.6-1.2-7-0.1
				c-3,1.4-5,5.3-8.3,6c-4.2,0.9-7-3.4-10.9-3.5c-3.7-0.1-8,3.5-5.5,7.2C1759.9,140.7,1762.5,139.2,1761.4,137.6L1761.4,137.6z"/>
		</g>
	</g>
	<g>
		<g>
			<path class="st0" d="M1794.6,119.9c1.2-6.5,12.5-0.2,16.5-0.9c2.6-0.4,4.5-2.2,6.9-3.1c3.8-1.5,7.5-0.9,11,1.2
				c1.7,1,3.2-1.6,1.5-2.6c-3-1.8-6.2-2.7-9.6-2.4c-1.5,0.1-2.9,0.5-4.2,1c-4,1.7-5.6,3.6-10.6,2.4c-4.8-1.2-13-3.6-14.3,3.6
				C1791.3,121,1794.2,121.8,1794.6,119.9L1794.6,119.9z"/>
		</g>
	</g>
	<g>
		<g>
			<path class="st0" d="M1869.9,525.3c0.8-3.3,2.7-5.9,5.9-7.3c2.8-1.2,5.1-0.4,8-0.5c3.2-0.2,5.6-1.8,7.5-4.2
				c2.9-3.6,4.8-7.3,8.9-9.7c4.7-2.7,10.1-3.2,15.3-1.6c1.9,0.6,2.6-2.3,0.8-2.9c-9.6-2.9-19.1,0.8-24.9,8.9c-2.3,3.2-4,6.4-8.4,6.5
				c-2.7,0.1-5-0.5-7.6,0.4c-4.4,1.5-7.4,5.2-8.4,9.6C1866.5,526.4,1869.4,527.2,1869.9,525.3L1869.9,525.3z"/>
		</g>
	</g>
	<g>
		<g>
			<path class="st0" d="M1884,536.8c-4.3-11.4,16.3-10.8,22.5-13c7.7-2.7,14.3-7.5,20.8-12.3c1.5-1.1,0-3.7-1.5-2.6
				c-4.4,3.3-8.9,6.5-13.7,9.1c-6,3.2-11.7,4.2-18.2,5.2c-6.9,1.1-15.9,5.9-12.7,14.3C1881.8,539.3,1884.7,538.6,1884,536.8
				L1884,536.8z"/>
		</g>
	</g>
</g>
<g>
	<g>
		<path class="st3" d="M201.2,72.8c17.8-14.5,41.9-16.6,63.9-12.6c23.5,4.2,44.9,15.5,66.6,25c22.4,9.9,45.2,17,69.8,18.2
			c24.5,1.3,49-2.2,72.8-8.2c49.7-12.5,95.3-36.5,143-54.6c23.9-9.1,48.6-17,74-20.6c13.8-2,27.7-2.5,41.6-1
			c13.2,1.4,26.1,4.5,39,7.7c28.5,7.1,56.9,13.3,86.1,16.8c30.1,3.6,60.5,4.8,90.8,3.8c1.9-0.1,1.9-3.1,0-3
			c-55,2-110-3.9-163.4-17.2c-25.5-6.4-50.8-13-77.3-11.7c-25.7,1.3-51.1,8.1-75.3,16.4C584.3,48.5,538.7,73,489.5,87.9
			c-25,7.5-50.9,12.7-77.1,12.8c-26.6,0.1-51.6-6.1-75.9-16.7c-24-10.4-47.5-23.3-73.6-27.3c-22.2-3.4-45.9-0.7-63.8,13.9
			C197.6,71.9,199.7,74.1,201.2,72.8L201.2,72.8z"/>
	</g>
</g>
<g>
	<g>
		<path class="st3" d="M163,230.7c21.9-15.6,47.8-25.2,74.6-27.8c13.4-1.3,26.9-0.8,40.1,1.5c13.7,2.4,26.9,7,40,11.6
			c24.3,8.4,48.4,14.8,74,8.9c22.1-5.1,42.1-16.6,61.7-27.5c23.1-12.9,47.1-26.1,73.9-28.5c1.9-0.2,1.9-3.2,0-3
			c-47.8,4.3-83.7,40.2-128.3,53.9c-11.3,3.5-23.1,5.3-34.9,4.6c-14.5-0.9-28.6-5.4-42.2-10.1c-13.7-4.7-27.4-9.8-41.8-12.5
			c-12.4-2.3-25.1-3-37.6-2.2c-29,1.8-57.3,11.7-81,28.6C159.9,229.2,161.4,231.8,163,230.7L163,230.7z"/>
	</g>
</g>
<g>
	<g>
		<path class="st3" d="M255.1,1013.6c38.9-41.1,96.1-57.9,151.4-58.4c32.1-0.3,64.1,4.3,95.4,11c29.8,6.3,58.7,14.5,89.5,10.4
			c32.2-4.3,62.3-18.1,91.1-32.6c1.7-0.9,0.2-3.5-1.5-2.6c-27.4,13.8-55.9,26.9-86.4,31.7c-15.6,2.4-31.3,2.2-46.9-0.3
			c-15.8-2.5-31.2-6.7-46.9-10c-57.2-12-118.1-17.1-174.3,2.4c-27.7,9.6-53.3,24.9-73.5,46.2C251.7,1012.9,253.8,1015,255.1,1013.6
			L255.1,1013.6z"/>
	</g>
</g>
<g>
	<g>
		<path class="st3" d="M1331.9,282.9c14.5-13.8,36-19.2,55.3-13.9c20.2,5.5,33.2,22.9,49.4,34.9c32.3,23.9,76.3,20.1,111.8,6
			c41.9-16.6,76.8-46.6,118.6-63.5c20.4-8.3,42.5-13.6,64.7-12.1c21.6,1.5,40,10.8,57.1,23.4c17,12.5,33,27.3,52.9,35.2
			c21.3,8.4,45.3,6.6,65.3-4.5c1.7-0.9,0.2-3.5-1.5-2.6c-20.4,11.3-44.8,12.3-66.1,2.9c-17.8-7.9-32.4-21.1-47.9-32.7
			c-15.9-11.9-32.8-21.2-52.8-24c-20.6-2.8-41.6,0.7-61.1,7.2c-42.7,14.3-77.9,43.8-118.4,62.7c-37.4,17.5-85.5,25.7-121-0.6
			c-17.7-13.1-31.6-31.8-54.4-36.2c-19.3-3.7-39.8,2.1-54,15.7C1328.4,282.1,1330.5,284.3,1331.9,282.9L1331.9,282.9z"/>
	</g>
</g>
<g>
	<g>
		<path class="st3" d="M1462.6,369.8c16.5-10.7,36.1-15.8,55.8-14.2c18,1.5,35,8.2,51.5,14.9c16,6.5,32.2,13.3,49.4,16.1
			c18,2.9,36.2,0.7,53.5-4.6c20.7-6.4,39.9-16.6,58.8-26.9c1.7-0.9,0.2-3.5-1.5-2.6c-34.6,18.7-72.6,38.4-113.2,30.6
			c-33.9-6.5-63.7-27.5-98.6-30.5c-20.2-1.7-40.4,3.6-57.3,14.6C1459.5,368.3,1461,370.9,1462.6,369.8L1462.6,369.8z"/>
	</g>
</g>
<g>
	<g>
		<path class="st3" d="M1435.7,866.2c21.8-20.4,48.6-35.1,77.5-42.6c14.7-3.8,29.8-5.7,45-5.6c16.9,0.2,33.7,2.9,50.5,4.5
			c32.6,3.1,63.9-2.4,94.4-14.3c29.1-11.3,56.5-30.9,87.8-35.7c36.6-5.6,64.9,18.7,88.2,43.6c1.3,1.4,3.4-0.7,2.1-2.1
			c-19.2-20.5-41.8-41.7-71-45c-32-3.6-61.1,15.2-88.9,28.1c-32,14.9-66.5,25.1-102,23.1c-17.7-1-35.2-4.2-53-5.1
			c-15.1-0.8-30.3,0.3-45.1,3.4c-32.7,6.7-63.2,22.5-87.6,45.4C1432.2,865.4,1434.3,867.5,1435.7,866.2L1435.7,866.2z"/>
	</g>
</g>
<g>
	<g>
		<path class="st4" d="M352.3,791.5c25.4-22.6,61.2-2.6,89.4,1.7c32.6,5,65.2-4,96.3-12.7c1.9-0.5,1.1-3.4-0.8-2.9
			c-34.4,9.6-70,19.1-105.7,10.6c-26.1-6.2-58-19.4-81.4,1.2C348.7,790.6,350.8,792.7,352.3,791.5L352.3,791.5z"/>
	</g>
</g>
</svg>
