<?xml version="1.0" encoding="utf-8"?>
<!-- Generator: Adobe Illustrator 24.3.0, SVG Export Plug-In . SVG Version: 6.00 Build 0)  -->
<svg version="1.1" id="Layer_1" xmlns="http://www.w3.org/2000/svg" xmlns:xlink="http://www.w3.org/1999/xlink" x="0px" y="0px"
	 viewBox="0 0 1979.5 1309.8" style="enable-background:new 0 0 1979.5 1309.8;" xml:space="preserve">
<style type="text/css">
	.st0{fill:#EC615B;}
	.st1{fill:#5222D0;}
	.st2{fill:#878787;}
	.st3{fill:#E8E8E8;}
</style>
<g id="details">
	<circle class="st0" cx="425.9" cy="912.9" r="5.8"/>
	<circle class="st0" cx="1914.7" cy="947.2" r="6.9"/>
	<circle class="st0" cx="1706.6" cy="623.8" r="15.8"/>
	<circle class="st0" cx="1738.3" cy="649.6" r="5.3"/>
	<circle class="st0" cx="1717.2" cy="892.8" r="11.8"/>
	<circle class="st1" cx="1722.5" cy="607.2" r="15.8"/>
	<circle class="st1" cx="1618.1" cy="906.5" r="7.9"/>
	<circle class="st1" cx="1399.3" cy="940.5" r="7"/>
	<circle class="st1" cx="206.9" cy="942.4" r="3.6"/>
	<g>
		<g>
			<path class="st1" d="M1926,867.4c-2.4,4.4-4,9.1-4.7,14.1c-0.3,1.9,2.6,2.7,2.9,0.8c0.7-4.7,2.1-9.1,4.4-13.3
				C1929.5,867.2,1926.9,865.7,1926,867.4L1926,867.4z"/>
		</g>
	</g>
	<g>
		<g>
			<path class="st1" d="M1925.8,868.3c2,5.3,4.3,10.4,6.9,15.3c0.9,1.7,3.5,0.2,2.6-1.5c-2.5-4.7-4.7-9.6-6.6-14.6
				C1928,865.7,1925.1,866.5,1925.8,868.3L1925.8,868.3z"/>
		</g>
	</g>
	<g>
		<g>
			<path class="st1" d="M1920.7,883.6c2.6,3.7,5.1,7.4,7.7,11.1c1.1,1.6,3.7,0.1,2.6-1.5c-2.6-3.7-5.1-7.4-7.7-11.1
				C1922.2,880.5,1919.6,882,1920.7,883.6L1920.7,883.6z"/>
		</g>
	</g>
	<g>
		<g>
			<path class="st1" d="M1931.6,883.1c-2.1,2.9-3.1,6.2-3.1,9.7c0,1.9,3,1.9,3,0c0-3,0.9-5.8,2.7-8.2
				C1935.3,883,1932.7,881.5,1931.6,883.1L1931.6,883.1z"/>
		</g>
	</g>
	<g>
		<g>
			<path class="st1" d="M259.9,829.6c-2.2,5.9-4.4,11.7-6.6,17.6c-0.7,1.7,1.5,3.3,2.1,1.5c2.2-5.9,4.4-11.7,6.6-17.6
				C262.7,829.4,260.7,827.9,259.9,829.6L259.9,829.6z"/>
		</g>
	</g>
	<g>
		<g>
			<path class="st1" d="M260.4,830.4c2.1,6.2,4.2,12.4,6.4,18.6c0.6,1.8,2.9,1,2.4-0.8c-2.1-6.2-4.2-12.4-6.4-18.6
				C262.1,827.8,259.8,828.6,260.4,830.4L260.4,830.4z"/>
		</g>
	</g>
	<g>
		<g>
			<path class="st1" d="M252.8,849.9c2.2,5.3,4.3,10.7,6.5,16c0.4,0.9,1.4,0.9,2,0.3c1.7-1.7,2.5-4.6,3.4-6.9
				c1.3-3.2,2.6-6.4,3.9-9.6c0.7-1.7-1.4-3.2-2.1-1.5c-1.1,2.8-2.4,5.6-3.5,8.4c-1,2.4-1.9,5.7-3.6,7.4c0.7,0.1,1.3,0.2,2,0.3
				c-2.2-5.3-4.3-10.7-6.5-16C254.2,846.7,252,848.2,252.8,849.9L252.8,849.9z"/>
		</g>
	</g>
	<g>
		<g>
			<path class="st1" d="M664.8,129.1c-3.1,5.9-5,12.1-5.9,18.7c-0.3,1.9,2.7,1.9,3,0c0.8-6.1,2.6-11.8,5.4-17.2
				C668.3,128.9,665.7,127.4,664.8,129.1L664.8,129.1z"/>
		</g>
	</g>
	<g>
		<g>
			<path class="st1" d="M664.4,132.6c3.1,6,6.1,12,9.2,18c0.9,1.7,3.5,0.2,2.6-1.5c-3.1-6-6.1-12-9.2-18
				C666.1,129.4,663.5,130.9,664.4,132.6L664.4,132.6z"/>
		</g>
	</g>
	<g>
		<g>
			<path class="st1" d="M659.1,148.2c2.5,6,5.5,11.6,9.1,16.9c1.1,1.6,3.7,0.1,2.6-1.5c-3.5-5.1-6.5-10.5-8.8-16.2
				C661.3,145.7,658.4,146.5,659.1,148.2L659.1,148.2z"/>
		</g>
	</g>
	<g>
		<g>
			<path class="st1" d="M672.7,149.5c-1.8,5.6-3.3,11.3-4.3,17.2c-0.3,1.9,2.6,2.7,2.9,0.8c1-5.8,2.4-11.5,4.3-17.2
				C676.2,148.5,673.3,147.7,672.7,149.5L672.7,149.5z"/>
		</g>
	</g>
	<g>
		<g>
			<path class="st2" d="M568.2,893.9c-1.2,4-2.3,7.9-3.5,11.9c-0.5,1.9,2.3,2.6,2.9,0.8c1.2-4,2.3-7.9,3.5-11.9
				C571.7,892.8,568.8,892,568.2,893.9L568.2,893.9z"/>
		</g>
	</g>
	<g>
		<g>
			<path class="st2" d="M568,896.1c1.8,4,3.7,8,5.5,11.9c0.8,1.8,3.4,0.2,2.6-1.5c-1.8-4-3.7-8-5.5-11.9
				C569.8,892.8,567.2,894.3,568,896.1L568,896.1z"/>
		</g>
	</g>
	<g>
		<g>
			<path class="st2" d="M565.5,907.7c0.9,4.7,3.1,8.9,6.2,12.5c1.3,1.5,3.4-0.7,2.1-2.1c-2.8-3.2-4.6-7-5.4-11.1
				C568,905,565.1,905.8,565.5,907.7L565.5,907.7z"/>
		</g>
	</g>
	<g>
		<g>
			<path class="st2" d="M573.4,907.3c-1.3,4.2-1.9,8.5-1.8,12.8c0.1,1.9,3.1,1.9,3,0c-0.1-4.1,0.4-8.1,1.7-12
				C576.9,906.3,574,905.5,573.4,907.3L573.4,907.3z"/>
		</g>
	</g>
	<g>
		<g>
			<path class="st2" d="M753.2,113c-2.2,4.8-4.3,9.6-6.5,14.4c-0.8,1.7,1.8,3.3,2.6,1.5c2.2-4.8,4.3-9.6,6.5-14.4
				C756.6,112.8,754,111.2,753.2,113L753.2,113z"/>
		</g>
	</g>
	<g>
		<g>
			<path class="st2" d="M747.1,129.9c2.3,5.9,4.5,11.7,6.8,17.6c0.7,1.8,3.6,1,2.9-0.8c-2.3-5.9-4.5-11.7-6.8-17.6
				C749.3,127.3,746.4,128.1,747.1,129.9L747.1,129.9z"/>
		</g>
	</g>
	<g>
		<g>
			<path class="st2" d="M753.2,113.2c3.1,5.4,6.2,10.9,9.3,16.3c1,1.7,3.5,0.2,2.6-1.5c-3.1-5.4-6.2-10.9-9.3-16.3
				C754.8,110,752.2,111.5,753.2,113.2L753.2,113.2z"/>
		</g>
	</g>
	<g>
		<g>
			<path class="st2" d="M763.2,128.2c-3.2,6-6,12.2-8.4,18.5c-0.7,1.8,2.2,2.6,2.9,0.8c2.3-6.1,5-12.1,8.1-17.8
				C766.7,128,764.1,126.5,763.2,128.2L763.2,128.2z"/>
		</g>
	</g>
	<g>
		<g>
			<path class="st1" d="M1208.1,956.6c2-3.8,5.8-6.4,10.2-6.2c3.6,0.1,6.3,2.6,9.5,3.8c5.6,2,7.3-1.6,11.5-4.3
				c5.7-3.8,11.2,4.7,17.3,4.6c3.5-0.1,6.4-1.8,6.5-5.5c-0.8,0.4-1.5,0.9-2.3,1.3c3.1,1.6,6.2,3.2,9.2,4.9c1.7,0.9,3.2-1.7,1.5-2.6
				c-3.1-1.6-6.2-3.2-9.2-4.9c-1-0.5-2.2,0.1-2.3,1.3c-0.3,7.1-14.1-3-16.7-3.3c-5.9-0.8-8.2,6.5-13.3,5.7
				c-5.4-0.9-8.8-4.8-14.6-3.8c-4.4,0.8-8,3.5-10,7.5C1204.7,956.8,1207.2,958.3,1208.1,956.6L1208.1,956.6z"/>
		</g>
	</g>
	<g>
		<g>
			<path class="st1" d="M1246.4,936.3c4.5-5,11.6,1.3,16.7,1.9c5.9,0.7,10.5-5.6,16.2-2.4c4.7,2.7,13.3,9.1,16.7,0.9
				c0.7-1.8-2.2-2.6-2.9-0.8c-2.4,5.8-11-2.3-13.9-3.5c-3.9-1.7-6.5-0.3-10,1.4c-4.2,2-7.2,1.3-11.2-0.5c-1.8-0.8-3.6-1.5-5.6-1.8
				c-3.1-0.4-5.9,0.2-8.1,2.6C1243,935.6,1245.1,937.7,1246.4,936.3L1246.4,936.3z"/>
		</g>
	</g>
	<g>
		<g>
			<path class="st0" d="M1761.4,137.6c1.4-2.6,3-3.3,4.8-2.1c0.8,0.3,1.6,0.7,2.4,1.2c0.9,0.4,1.8,1,2.7,1.3
				c1.6,0.5,3.2,0.7,4.8,0.3c4.3-1.2,6.5-6.6,11.1-6.5c4.3,0.1,7.4,4.2,11.9,2.1c1.9-0.9,3.2-2.5,5-3.5c4-2.2,8.9-1.4,12.3,1.4
				c1.5,1.2,3.6-0.9,2.1-2.1c-4.5-3.7-10.7-4.8-15.9-1.9c-2.3,1.3-4.2,4.1-7.2,3.7c-1.7-0.2-3.2-1.4-4.8-2c-2.4-0.9-4.6-1.2-7-0.1
				c-3,1.4-5,5.3-8.3,6c-4.2,0.9-7-3.4-10.9-3.5c-3.7-0.1-8,3.5-5.5,7.2C1759.9,140.7,1762.5,139.2,1761.4,137.6L1761.4,137.6z"/>
		</g>
	</g>
	<g>
		<g>
			<path class="st0" d="M1794.6,119.9c1.2-6.5,12.5-0.2,16.5-0.9c2.6-0.4,4.5-2.2,6.9-3.1c3.8-1.5,7.5-0.9,11,1.2
				c1.7,1,3.2-1.6,1.5-2.6c-3-1.8-6.2-2.7-9.6-2.4c-1.5,0.1-2.9,0.5-4.2,1c-4,1.7-5.6,3.6-10.6,2.4c-4.8-1.2-13-3.6-14.3,3.6
				C1791.3,121,1794.2,121.8,1794.6,119.9L1794.6,119.9z"/>
		</g>
	</g>
	<g>
		<g>
			<path class="st0" d="M1869.9,525.3c0.8-3.3,2.7-5.9,5.9-7.3c2.8-1.2,5.1-0.4,8-0.5c3.2-0.2,5.6-1.8,7.5-4.2
				c2.9-3.6,4.8-7.3,8.9-9.7c4.7-2.7,10.1-3.2,15.3-1.6c1.9,0.6,2.6-2.3,0.8-2.9c-9.6-2.9-19.1,0.8-24.9,8.9c-2.3,3.2-4,6.4-8.4,6.5
				c-2.7,0.1-5-0.5-7.6,0.4c-4.4,1.5-7.4,5.2-8.4,9.6C1866.5,526.4,1869.4,527.2,1869.9,525.3L1869.9,525.3z"/>
		</g>
	</g>
	<g>
		<g>
			<path class="st0" d="M1884,536.8c-4.3-11.4,16.3-10.8,22.5-13c7.7-2.7,14.3-7.5,20.8-12.3c1.5-1.1,0-3.7-1.5-2.6
				c-4.4,3.3-8.9,6.5-13.7,9.1c-6,3.2-11.7,4.2-18.2,5.2c-6.9,1.1-15.9,5.9-12.7,14.3C1881.8,539.3,1884.7,538.6,1884,536.8
				L1884,536.8z"/>
		</g>
	</g>
	<g>
		<g>
			<path class="st2" d="M525.7,787.4c-2.2,3.3-4.2,6.7-6.4,10c-0.8,1.2,1.8,2.3,2.6,1c2.2-3.3,4.3-6.7,6.4-10
				C529.1,787.3,526.5,786.2,525.7,787.4L525.7,787.4z"/>
		</g>
	</g>
	<g>
		<g>
			<path class="st2" d="M519.7,799.2c2.3,4.1,4.4,8.1,6.7,12.2c0.7,1.2,3.6,0.7,2.9-0.6c-2.3-4.1-4.4-8.1-6.7-12.2
				C521.9,797.4,519,797.9,519.7,799.2L519.7,799.2z"/>
		</g>
	</g>
	<g>
		<g>
			<path class="st2" d="M525.7,787.6c3.1,3.7,6.1,7.6,9.2,11.3c1,1.2,3.5,0.1,2.6-1c-3.1-3.7-6.1-7.6-9.2-11.3
				C527.3,785.4,524.7,786.4,525.7,787.6L525.7,787.6z"/>
		</g>
	</g>
	<g>
		<g>
			<path class="st2" d="M535.6,798c-3.2,4.2-5.9,8.5-8.3,12.8c-0.7,1.2,2.2,1.8,2.9,0.6c2.3-4.2,4.9-8.4,8-12.3
				C539.1,797.8,536.5,796.8,535.6,798L535.6,798z"/>
		</g>
	</g>
</g>
<g>
	<g>
		<path class="st3" d="M163,230.7c21.9-15.6,47.8-25.2,74.6-27.8c13.4-1.3,26.9-0.8,40.1,1.5c13.7,2.4,26.9,7,40,11.6
			c24.3,8.4,48.4,14.8,74,8.9c22.1-5.1,42.1-16.6,61.7-27.5c23.1-12.9,47.1-26.1,73.9-28.5c1.9-0.2,1.9-3.2,0-3
			c-47.8,4.3-83.7,40.2-128.3,53.9c-11.3,3.5-23.1,5.3-34.9,4.6c-14.5-0.9-28.6-5.4-42.2-10.1c-13.7-4.7-27.4-9.8-41.8-12.5
			c-12.4-2.3-25.1-3-37.6-2.2c-29,1.8-57.3,11.7-81,28.6C159.9,229.2,161.4,231.8,163,230.7L163,230.7z"/>
	</g>
</g>
<g>
	<g>
		<path class="st3" d="M139.8,811.6c38.9-41.1,96.1-57.9,151.4-58.4c32.1-0.3,64.1,4.3,95.4,11c29.8,6.3,58.7,14.5,89.5,10.4
			c32.2-4.3,62.3-18.1,91.1-32.6c1.7-0.9,0.2-3.5-1.5-2.6c-27.4,13.8-55.9,26.9-86.4,31.7c-15.6,2.4-31.3,2.2-46.9-0.3
			c-15.8-2.5-31.2-6.7-46.9-10c-57.2-12-118.1-17.1-174.3,2.4c-27.7,9.6-53.3,24.9-73.5,46.2C136.4,810.9,138.5,813,139.8,811.6
			L139.8,811.6z"/>
	</g>
</g>
<g>
	<g>
		<path class="st3" d="M798,860.7c21.8-20.4,48.6-35.1,77.5-42.6c14.7-3.8,29.8-5.7,45-5.6c16.9,0.2,33.7,2.9,50.5,4.5
			c32.6,3.1,63.9-2.4,94.4-14.3c29.1-11.3,56.5-30.9,87.8-35.7c36.6-5.6,64.9,18.7,88.2,43.6c1.3,1.4,3.4-0.7,2.1-2.1
			c-19.2-20.5-41.8-41.7-71-45c-32-3.6-61.1,15.2-88.9,28.1c-32,14.9-66.5,25.1-102,23.1c-17.7-1-35.2-4.2-53-5.1
			c-15.1-0.8-30.3,0.3-45.1,3.4c-32.7,6.7-63.2,22.5-87.6,45.4C794.5,859.9,796.6,862,798,860.7L798,860.7z"/>
	</g>
</g>
</svg>
