<?xml version="1.0" encoding="utf-8"?>
<!-- Generator: Adobe Illustrator 24.3.0, SVG Export Plug-In . SVG Version: 6.00 Build 0)  -->
<svg version="1.1" id="Layer_1" xmlns="http://www.w3.org/2000/svg" xmlns:xlink="http://www.w3.org/1999/xlink" x="0px" y="0px"
	 viewBox="0 0 1920 1080" style="enable-background:new 0 0 1920 1080;" xml:space="preserve">
<style type="text/css">
	.st0{fill:url(#SVGID_1_);}
	.st1{fill:#FFFFFF;}
</style>
<linearGradient id="SVGID_1_" gradientUnits="userSpaceOnUse" x1="64.7082" y1="-274.7842" x2="1896.7461" y2="1392.5109">
	<stop  offset="0" style="stop-color:#ED1E79"/>
	<stop  offset="1.577607e-02" style="stop-color:#DF207B"/>
	<stop  offset="6.394352e-02" style="stop-color:#BA2482"/>
	<stop  offset="0.1144" style="stop-color:#9C2787"/>
	<stop  offset="0.1672" style="stop-color:#842A8C"/>
	<stop  offset="0.2232" style="stop-color:#732C8F"/>
	<stop  offset="0.2845" style="stop-color:#692D90"/>
	<stop  offset="0.3616" style="stop-color:#662D91"/>
	<stop  offset="0.8047" style="stop-color:#0075BE"/>
	<stop  offset="0.9944" style="stop-color:#005B97"/>
</linearGradient>
<rect class="st0" width="1920" height="1080"/>
<path class="st1" d="M1024.9,571.6c4.2-33.6,7.9-63.6,11.9-93.5c0.3-2.4,2.2-5.5,4.5-6.7c16.1-8.4,18.4-21.8,19.7-35.6
	c1.8-19.2,3.4-38.4,1.6-57.9c-2.8,15.9-5.6,31.8-8.5,47.7c-1.2-0.1-2.5-0.2-3.7-0.3c1.4-16.5,2.7-33,4.1-49.5
	c-1.1-0.1-2.3-0.3-3.4-0.4c-3.2,16.4-6.4,32.8-9.7,49.2c-1.3-0.2-2.6-0.3-3.9-0.5c1.9-15.8,3.8-31.6,5.7-47.4
	c-1.3-0.2-2.6-0.4-3.8-0.6c-3.5,15.9-7,31.8-10.5,47.7c-1.2-0.1-2.5-0.3-3.7-0.4c2.1-16.5,4.1-33,6.2-49.5c-1.4-0.2-2.8-0.3-4.3-0.5
	c-4.7,25.5-9.5,51.1-14,76.6c-0.4,2.4,0.3,5.8,2.2,7.5c16.6,15.5,9.6,33.1,6.5,50c-3.3,17.8-7.9,35.4-12.4,53
	c-2.8,11-3.2,10.9-22.3,10.8c0-26-0.6-52.1,0.1-78.2c1.2-42.1,3.3-84.2,4.9-126.4c0.2-3.9,0.3-7.9-0.4-11.8c-1.2-7.1-6.9-8.3-12-3.6
	c-4.7,4.3-9.3,10.3-10.1,15.9c-5.6,41.8-10.3,83.7-15.1,125.5c-0.3,2.4,0.6,6.3,2.5,7.1c17,7.7,13.4,20.6,12.5,32.7
	c-0.9,12.7-2.6,25.3-4,37.7c-21.3,5.1-23.5,4.5-27.7-12.1c-6.6-26.2-12.2-52.5-18.6-78.8c-2.3-9.4-0.6-17.3,8.6-23.8
	c24.4-17.3,5-70.7-22.4-82.1c-10.2-4.3-18.4-0.9-24.8,6.5c-21.3,24.5-12.4,65.7,17.5,82.7c4.1,2.3,8.5,6.2,9.4,9.9
	c3.5,14.2,6.2,28.5,8.1,42.9c2.4,17.8,3.7,35.7,5.6,55.4c-28.1-0.8-53.2-4.7-75.8-16c-3.5-1.7-5.1-8.2-5-12.4
	c1.4-41.7,3.1-83.4,5.4-125c0.5-9.4-2.6-15-12.3-20.4c-46.8-26.2-65.9-65.2-51.9-105.6c3-8.7,8-17.4,14.2-24.8
	c21.2-25,54.5-28.2,82.8-8.6c7.6,5.3,14.6,11.2,21.8,16.8c29.7-43,75.2-60.5,125.1-47.6c9,2.3,17.9,5.9,25.4,10.6
	c18.6,11.5,20.7,24.7,9.1,50.3c5.7-0.5,10.9-0.9,16.1-1.4c37.6-3.7,73,14.8,81.5,42.6c9.1,29.8-8.7,56.8-45.9,69.4
	c-23.7,8-23.7,8-21.9,29c3.3,37.6,6.1,75.3,10.1,112.9c1.1,10.1-2.4,16-14.1,18.5C1067.4,563,1048.5,566.8,1024.9,571.6z
	 M811.8,363.2c-3-13.6-7.7-26.7-8.4-40c-1-18.2,7.2-34.5,28.6-42c20.2-7,35.5,3.3,49.4,14.3c14.3,11.4,17.7,11.2,29.8-1.7
	c16.8-18,35.9-33.9,62.4-41.6c27.5-8,54-8.3,77.7,13c-4-15.7-16-22.2-30.1-26.5c-34.5-10.4-72.7-0.8-95.2,24
	c-6.7,7.3-11.8,15.6-17.7,23.4c-7.4,9.8-13.1,10-21.6,1c-5.9-6.2-11.3-12.9-18-18.3c-18.5-14.9-40.5-13.6-56.7,2.7
	C787.6,295.8,787.6,337.8,811.8,363.2z M1046,302.6c17.8,2.3,39.3,2.6,58.6,8.2c22,6.3,29.8,24.1,33.5,44.7
	c8.2-19,2.2-35.2-15.7-47.7C1101.4,293,1069.1,291.6,1046,302.6z"/>
<g>
	<g>
		<path class="st1" d="M675.4,822.1c-25.7,1.8-51.5,3.1-77.3,3.9c-5.3-68-11.9-129.6-27.7-196.7c21.6,0,32.4,0.2,54.2,0.7
			c8.9,49.5,19.2,96.8,18,147c13.3-48.6,17.3-96.3,23.6-145.7c22.1,0.8,33.1,1.3,55.2,2.3C708.6,697.5,694.1,758.9,675.4,822.1z"/>
		<path class="st1" d="M793.2,813c0-4.4,0.1-6.7,0.4-11.3c-7.2,5.5-20.1,15.9-44,17.9c-21.8,1.8-31.7-6.6-34.2-14.3
			c-1.7-5.2-1.2-11,0.3-23.3c2.9-23,9.3-35.8,31.5-43.5c13.7-4.5,27.6-6.3,41.2-9.8c3.3-0.9,7-1.9,10.3-3.3c0-3.2,0-4.8,0-8.1
			c0-3.3-0.1-10.8-11.8-10.9c-11.1-0.1-10.9,8.4-10.9,11.3c0,2.6,0,4,0,6.5c-19.4,0-29.1,0-48.4,0c0-3.6,0-5.5-0.1-9.3
			c-0.2-9,0.8-12.5,2.8-17.4c9-20.6,39.7-22.3,60.2-21.6c30,1,47.1,8.7,54.7,19.4c3.7,5.4,5.7,10.5,5.8,21.6
			c0.4,25.3-1.6,50.6-2.7,75.9c-0.4,10.2,1.7,12.1,6.6,15.6C830.3,810,818,811,793.2,813z M797.8,746.7c-4.3,1.6-10.3,3.8-10.3,3.8
			c-0.9,0.3-9.8,3.4-13.3,7.5c-2.5,3-3,5.3-3.5,9.9c-0.4,4.3-0.7,6.5-1.1,10.7c-0.4,3.6-1.8,13.6,11.1,12.8
			c13.2-0.8,14.1-9,14.6-14.1C796.4,765.1,797,758.6,797.8,746.7z"/>
		<path class="st1" d="M942.4,804.2c-0.1-29.1,0.4-58.3,0.2-87.4c0-2.5,0.8-11.4-11.1-11.4c-11.4,0-11.1,9.2-11.1,11.5
			c0.3,29.4-0.7,58.7-0.7,88.1c-21.4,0.8-32.2,1.4-54,2.8c0.1-42.3,2.7-84.5,1.9-126.9c21.1,0.4,31.6,0.6,52.6,0.9
			c0,4.9,0,7.4,0.1,12.3c2.2-2.3,5-5.8,12.2-9.4c3.9-2.1,11.1-5.2,22.7-5.1c4.2,0,13.6,0.3,23,5.1c16.6,8.4,16.8,22.1,16.9,36.2
			c-0.1,27.8,0.2,55.6,0.1,83.4C974.1,803.7,963.7,803.7,942.4,804.2z"/>
		<path class="st1" d="M1013.8,804.3c-0.1-54.1-0.1-108.3,0-162.4c36.6-1.1,73.1-2.9,109.7-4.9c0.1,12.4-0.3,19.3-1,33
			c-21.2,0.8-31.8,1.2-52.8,1.9c-0.4,13.8-0.7,20.9-1,34.4c19.2-0.1,28.8-0.2,48.1-0.4c-0.5,13.2-0.5,18.8-0.2,31.6
			c-19.2-0.1-28.8-0.1-48-0.2c0.2,14.4,0.5,21.9,1,36.7c21.1,0.5,31.6,0.8,52.8,1.3c0.7,13.4,1.1,20.1,1.2,32.6
			C1086.9,806.4,1050.4,805.2,1013.8,804.3z"/>
		<path class="st1" d="M1214.3,812.2c-0.1-4.4-0.2-6.7-0.5-11.4c-6.6,4.7-19,13.5-42.5,12.4c-21.5-1-31.5-10.4-35-17.6
			c-2.4-4.9-2.7-10-3.3-20.4c-1.2-19.6,3-30.4,24.4-37.3c13.2-4,27-5.7,40.5-9.2c3.3-0.9,6.9-1.9,10.2-3.3c0-3.2,0-4.9,0.2-8.3
			c0.1-3.4,0.6-11.4-11.1-11.3c-11.1,0.1-11.6,8.9-11.7,11.8c-0.1,2.7-0.1,4-0.1,6.6c-19.4,0-29.1,0-48.4,0c0-3.5,0-5.4,0.1-9.1
			c0.2-8.8,1.5-12.2,4-17c11.8-19.4,39.4-24.5,63.3-25c30.3-0.7,46.5,6.9,52.7,19.1c3,6.1,4.2,12.2,3.6,24.3
			c-0.8,27.1,3.9,54,6.7,80.9c1,10.9,2.9,13,7.9,17.2C1250.9,813.8,1238.7,813.2,1214.3,812.2z M1209.1,746.7
			c-4.1,1.5-9.8,3.5-9.8,3.5c-0.8,0.2-9.3,3-12,6.8c-2,2.8-2.1,4.8-1.7,9.2c0.3,4,0.5,6,0.9,10.1c0.3,3.3,0.5,12.8,13.3,13.2
			c13.1,0.5,12.7-7.5,12.2-12.5C1210.7,764.8,1210,758.5,1209.1,746.7z"/>
		<path class="st1" d="M1338.2,816.4c-11.5-0.2-22.3-0.8-31.2-9.5c-7.6-7.5-8.8-15.8-10-25.7c-3.6-25.8-7.6-51.9-4.4-77.9
			c-8.9,0-13.3,0.1-22.2,0.1c1-11.2,1.8-17.2,3.2-29c9-0.2,13.5-0.3,22.4-0.5c2.5-20.1,4-30.7,4.2-46.9c20.8-0.8,31.2-1.1,51.8-1.4
			c-0.1,16-1.8,26.9-4.6,47.5c9.3-0.1,14-0.1,23.3-0.1c-1.7,12.4-2.6,18.7-3.8,30.2c-9.3,0-13.9,0-23.2-0.1
			c-1.4,25.2,0.6,47.2,3.9,72.3c1.2,8.4,4.2,12.6,14.8,12.9c4.7,0.1,7,0.2,11.7,0.3c1.6,12,2.3,17.9,2.5,28.1
			C1361.4,816.7,1353.7,816.6,1338.2,816.4z"/>
	</g>
</g>
<path class="st1" d="M1458,888c-137.4-17.9-306.4-28.4-489-28.4S617.4,870.1,480,888c47.8-20.2,248.6-35.4,489-35.4
	S1410.2,867.8,1458,888z"/>
</svg>
